<svg width="20" height="17" viewBox="0 0 20 17" fill="none" xmlns="http://www.w3.org/2000/svg">
<path fill-rule="evenodd" clip-rule="evenodd" d="M9.596 4.95715L9.6372 5.63644L8.9506 5.55327C6.4514 5.23441 4.26802 4.15308 2.41422 2.337L1.50791 1.43589L1.27447 2.10132C0.780121 3.58469 1.09595 5.15123 2.12585 6.20484C2.67512 6.78709 2.55154 6.87027 1.60403 6.52369C1.27447 6.41279 0.986099 6.32961 0.958636 6.37119C0.862512 6.46824 1.19208 7.72979 1.45298 8.22887C1.81001 8.92203 2.5378 9.60133 3.33425 10.0034L4.00712 10.3222L3.21067 10.3361C2.44168 10.3361 2.41422 10.3499 2.49661 10.6411C2.77125 11.5422 3.85607 12.4987 5.06447 12.9146L5.91585 13.2058L5.17433 13.6494C4.07578 14.2871 2.78498 14.6475 1.49418 14.6753C0.876244 14.6891 0.368164 14.7446 0.368164 14.7862C0.368164 14.9248 2.04346 15.7011 3.01842 16.0061C5.94332 16.9072 9.41749 16.5191 12.0265 14.9803C13.8804 13.8851 15.7342 11.7085 16.5993 9.60133C17.0662 8.4784 17.533 6.42665 17.533 5.44236C17.533 4.80465 17.5742 4.72147 18.3432 3.959C18.7964 3.51537 19.2221 3.03016 19.3045 2.89153C19.4418 2.62813 19.428 2.62813 18.7277 2.8638C17.5605 3.2797 17.3957 3.22425 17.9725 2.6004C18.3981 2.15678 18.9062 1.35271 18.9062 1.11704C18.9062 1.07545 18.7003 1.14476 18.4668 1.26953C18.2196 1.40816 17.6704 1.61611 17.2584 1.74088L16.5169 1.97656L15.844 1.51907C15.4733 1.26953 14.9514 0.992267 14.6768 0.909088C13.9765 0.715003 12.9054 0.742729 12.2737 0.964541C10.5572 1.58839 9.47241 3.19652 9.596 4.95715Z" fill="white"/>
</svg>
