<svg width="22" height="13" viewBox="0 0 22 13" fill="none" xmlns="http://www.w3.org/2000/svg">
<path fill-rule="evenodd" clip-rule="evenodd" d="M11.8428 12.0741C11.8428 12.0741 12.2208 12.0329 12.4143 11.8288C12.5915 11.6418 12.5854 11.2889 12.5854 11.2889C12.5854 11.2889 12.5618 9.64114 13.3412 9.39785C14.1094 9.15858 15.0957 10.9913 16.1424 11.6961C16.9331 12.2289 17.5333 12.1123 17.5333 12.1123L20.3303 12.0741C20.3303 12.0741 21.7929 11.9856 21.0995 10.8566C21.0422 10.7641 20.6949 10.0212 19.0204 8.49505C17.2659 6.89756 17.5015 7.15593 19.6134 4.39223C20.8998 2.70928 21.4139 1.68182 21.2531 1.24248C21.1005 0.82225 20.1542 0.933844 20.1542 0.933844L17.0058 0.952945C17.0058 0.952945 16.7723 0.92178 16.5992 1.02332C16.4302 1.12285 16.3206 1.35508 16.3206 1.35508C16.3206 1.35508 15.8229 2.65701 15.1582 3.7649C13.756 6.10132 13.1958 6.22498 12.9664 6.08021C12.4328 5.74141 12.5659 4.72098 12.5659 3.99613C12.5659 1.73108 12.9162 0.787063 11.8848 0.542764C11.5427 0.461331 11.2908 0.408048 10.4151 0.399C9.29157 0.387941 8.34112 0.403021 7.80239 0.661395C7.44392 0.833309 7.16739 1.21735 7.33638 1.23947C7.54429 1.26661 8.01542 1.36413 8.26533 1.69791C8.58795 2.1292 8.57668 3.09634 8.57668 3.09634C8.57668 3.09634 8.76206 5.76252 8.14345 6.09328C7.71943 6.32049 7.13769 5.85702 5.88715 3.73675C5.24702 2.65097 4.76361 1.45059 4.76361 1.45059C4.76361 1.45059 4.6704 1.2264 4.50346 1.10576C4.30169 0.959983 4.02004 0.914742 4.02004 0.914742L1.02837 0.933844C1.02837 0.933844 0.578747 0.945908 0.413851 1.13793C0.267392 1.30783 0.402585 1.66071 0.402585 1.66071C0.402585 1.66071 2.74492 7.04031 5.39758 9.75173C7.83004 12.2369 10.5913 12.0741 10.5913 12.0741H11.8428Z" fill="white"/>
</svg>
