<svg width="26" height="26" viewBox="0 0 26 26" fill="none" xmlns="http://www.w3.org/2000/svg">
<path fill-rule="evenodd" clip-rule="evenodd" d="M12.9256 0.779785C9.58203 0.779785 9.16242 0.794405 7.84922 0.854166C6.53859 0.914183 5.64397 1.12168 4.86118 1.42613C4.05146 1.74058 3.36459 2.16121 2.68029 2.84577C1.99548 3.53007 1.57484 4.21694 1.25937 5.0264C0.954149 5.80945 0.746397 6.70432 0.687405 8.01445C0.62867 9.32765 0.613281 9.74751 0.613281 13.091C0.613281 16.4346 0.628157 16.8529 0.687662 18.1661C0.747936 19.4767 0.955432 20.3714 1.25962 21.1542C1.57433 21.9639 1.99496 22.6507 2.67952 23.335C3.36357 24.0199 4.05043 24.4415 4.85964 24.756C5.64294 25.0604 6.53782 25.2679 7.8482 25.3279C9.1614 25.3877 9.58075 25.4023 12.924 25.4023C16.2678 25.4023 16.6861 25.3877 17.9993 25.3279C19.31 25.2679 20.2056 25.0604 20.9889 24.756C21.7984 24.4415 22.4842 24.0199 23.1683 23.335C23.8531 22.6507 24.2737 21.9639 24.5892 21.1544C24.8919 20.3714 25.0996 19.4765 25.1612 18.1664C25.2202 16.8532 25.2355 16.4346 25.2355 13.091C25.2355 9.74751 25.2202 9.3279 25.1612 8.0147C25.0996 6.70407 24.8919 5.80945 24.5892 5.02666C24.2737 4.21694 23.8531 3.53007 23.1683 2.84577C22.4835 2.16095 21.7986 1.74032 20.9882 1.42613C20.2033 1.12168 19.3082 0.914183 17.9975 0.854166C16.6843 0.794405 16.2663 0.779785 12.9217 0.779785H12.9256ZM11.8118 2.99039C12.1396 2.98988 12.5054 2.99039 12.9163 2.99039C16.2034 2.99039 16.593 3.00219 17.891 3.06118C19.0914 3.11607 19.7429 3.31664 20.1768 3.48515C20.7513 3.70829 21.161 3.97504 21.5916 4.40593C22.0225 4.83683 22.2892 5.2472 22.5129 5.82173C22.6814 6.25518 22.8822 6.90666 22.9369 8.107C22.9958 9.40481 23.0087 9.79467 23.0087 13.0802C23.0087 16.3658 22.9958 16.7557 22.9369 18.0535C22.882 19.2538 22.6814 19.9053 22.5129 20.3387C22.2897 20.9133 22.0225 21.3224 21.5916 21.753C21.1607 22.1839 20.7516 22.4506 20.1768 22.6738C19.7434 22.8431 19.0914 23.0431 17.891 23.098C16.5932 23.157 16.2034 23.1698 12.9163 23.1698C9.62889 23.1698 9.23929 23.157 7.94148 23.098C6.74113 23.0426 6.08966 22.842 5.65544 22.6735C5.08091 22.4504 4.67053 22.1836 4.23964 21.7527C3.80875 21.3219 3.542 20.9125 3.31835 20.3377C3.14984 19.9043 2.94901 19.2528 2.89438 18.0524C2.83539 16.7546 2.82359 16.3648 2.82359 13.0772C2.82359 9.78954 2.83539 9.40174 2.89438 8.10393C2.94927 6.90358 3.14984 6.25211 3.31835 5.81813C3.54149 5.24361 3.80875 4.83323 4.23964 4.40234C4.67053 3.97145 5.08091 3.7047 5.65544 3.48105C6.08941 3.31177 6.74113 3.11171 7.94148 3.05657C9.0772 3.00527 9.51732 2.98988 11.8118 2.98732V2.99039ZM19.4827 5.03183C18.6671 5.03183 18.0054 5.69279 18.0054 6.50867C18.0054 7.32429 18.6671 7.98602 19.4827 7.98602C20.2983 7.98602 20.9601 7.32429 20.9601 6.50867C20.9601 5.69305 20.2983 5.03132 19.4827 5.03132V5.03183ZM12.9193 6.76266C9.4278 6.76266 6.59698 9.59348 6.59698 13.085C6.59698 16.5765 9.4278 19.4061 12.9193 19.4061C16.4108 19.4061 19.2406 16.5765 19.2406 13.085C19.2406 9.59348 16.4106 6.76266 12.9191 6.76266H12.9193ZM12.9099 8.97279C15.1762 8.97279 17.0136 10.81 17.0136 13.0765C17.0136 15.3428 15.1762 17.1803 12.9099 17.1803C10.6433 17.1803 8.80612 15.3428 8.80612 13.0765C8.80612 10.81 10.6433 8.97279 12.9099 8.97279Z" fill="white"/>
</svg>
