<svg width="24" height="19" viewBox="0 0 24 19" fill="none" xmlns="http://www.w3.org/2000/svg">
<path fill-rule="evenodd" clip-rule="evenodd" d="M11.4392 5.07595L11.488 5.88008L10.6752 5.78162C7.71673 5.40417 5.13213 4.12413 2.93767 1.97432L1.86482 0.907621L1.58848 1.69534C1.00328 3.45129 1.37716 5.3057 2.59631 6.55292C3.24652 7.24217 3.10022 7.34064 1.9786 6.93037C1.58848 6.79908 1.24711 6.70062 1.2146 6.74985C1.10082 6.86473 1.49094 8.3581 1.79979 8.94889C2.22243 9.76943 3.08396 10.5736 4.02677 11.0495L4.82328 11.4269L3.88047 11.4433C2.97018 11.4433 2.93767 11.4597 3.0352 11.8044C3.3603 12.8711 4.64447 14.0034 6.07494 14.4957L7.08277 14.8404L6.20498 15.3655C4.90456 16.1204 3.37656 16.5471 1.84856 16.5799C1.11707 16.5963 0.515625 16.6619 0.515625 16.7112C0.515625 16.8753 2.49877 17.7943 3.6529 18.1553C7.11528 19.222 11.2279 18.7625 14.3164 16.9409C16.5109 15.6445 18.7053 13.068 19.7294 10.5736C20.2821 9.24429 20.8348 6.81549 20.8348 5.65033C20.8348 4.89544 20.8835 4.79697 21.7938 3.89438C22.3303 3.36924 22.8342 2.79486 22.9317 2.63075C23.0943 2.31895 23.078 2.31895 22.249 2.59793C20.8673 3.09025 20.6722 3.02461 21.3549 2.28613C21.8589 1.76098 22.4603 0.809157 22.4603 0.530174C22.4603 0.480942 22.2165 0.562996 21.9401 0.710692C21.6475 0.8748 20.9973 1.12096 20.5097 1.26866L19.6319 1.54764L18.8354 1.00609C18.3965 0.710692 17.7788 0.382477 17.4537 0.284013C16.6246 0.0542621 15.3567 0.0870836 14.609 0.349656C12.5771 1.08814 11.2929 2.99179 11.4392 5.07595Z" fill="white"/>
</svg>
