<svg width="26" height="14" viewBox="0 0 26 14" fill="none" xmlns="http://www.w3.org/2000/svg">
<path fill-rule="evenodd" clip-rule="evenodd" d="M14.2237 13.8441C14.2237 13.8441 14.6681 13.7957 14.8957 13.5557C15.104 13.3358 15.0968 12.9209 15.0968 12.9209C15.0968 12.9209 15.0691 10.9834 15.9856 10.6973C16.8888 10.416 18.0485 12.571 19.2793 13.3996C20.209 14.0262 20.9147 13.889 20.9147 13.889L24.2036 13.8441C24.2036 13.8441 25.9233 13.7401 25.108 12.4126C25.0405 12.3038 24.6323 11.4302 22.6633 9.6358C20.6004 7.75742 20.8773 8.06122 23.3606 4.81159C24.8731 2.83274 25.4777 1.62462 25.2886 1.10803C25.1092 0.613909 23.9964 0.745123 23.9964 0.745123L20.2945 0.767583C20.2945 0.767583 20.0199 0.730938 19.8164 0.850331C19.6177 0.967361 19.4888 1.24043 19.4888 1.24043C19.4888 1.24043 18.9035 2.77127 18.122 4.07396C16.4733 6.82119 15.8146 6.96659 15.5448 6.79636C14.9174 6.39799 15.0739 5.19814 15.0739 4.34584C15.0739 1.68254 15.4858 0.572535 14.2731 0.285281C13.8709 0.18953 13.5746 0.126878 12.545 0.116239C11.2239 0.103236 10.1063 0.120967 9.47285 0.424771C9.05136 0.626912 8.7262 1.07848 8.92491 1.10449C9.16938 1.1364 9.72334 1.25107 10.0172 1.64353C10.3965 2.15066 10.3833 3.28785 10.3833 3.28785C10.3833 3.28785 10.6013 6.42281 9.87388 6.81173C9.37531 7.07889 8.69128 6.53393 7.22086 4.04086C6.46819 2.76417 5.89977 1.35273 5.89977 1.35273C5.89977 1.35273 5.79018 1.08912 5.59388 0.947265C5.35664 0.775858 5.02546 0.722663 5.02546 0.722663L1.50777 0.745123C1.50777 0.745123 0.979097 0.759309 0.785209 0.985092C0.612997 1.18487 0.771962 1.59979 0.771962 1.59979C0.771962 1.59979 3.52614 7.92528 6.64521 11.1134C9.50537 14.0356 12.7521 13.8441 12.7521 13.8441H14.2237Z" fill="white"/>
</svg>
